<?xml version="1.0" encoding="UTF-8"?>
<!DOCTYPE svg PUBLIC "-//W3C//DTD SVG 1.1//EN" "http://www.w3.org/Graphics/SVG/1.1/DTD/svg11.dtd">
<svg xmlns="http://www.w3.org/2000/svg" version="1.1" width="3500px" height="4096px" style="shape-rendering:geometricPrecision; text-rendering:geometricPrecision; image-rendering:optimizeQuality; fill-rule:evenodd; clip-rule:evenodd" xmlns:xlink="http://www.w3.org/1999/xlink">
<g><path style="opacity:1" fill="#ede1ce" d="M -0.5,-0.5 C 1166.17,-0.5 2332.83,-0.5 3499.5,-0.5C 3499.5,1364.83 3499.5,2730.17 3499.5,4095.5C 2332.83,4095.5 1166.17,4095.5 -0.5,4095.5C -0.5,2730.17 -0.5,1364.83 -0.5,-0.5 Z M 100.5,94.5 C 140.168,94.3333 179.835,94.5 219.5,95C 594.112,475.613 968.779,856.28 1343.5,1237C 1275.6,1237.17 1207.76,1237.67 1140,1238.5C 891.148,1238.63 641.982,1238.46 392.5,1238C 295.036,1140.54 197.869,1043.37 101,946.5C 100.5,662.5 100.333,378.5 100.5,94.5 Z M 229.5,95.5 C 1286.33,94.5001 2343.33,94.1667 3400.5,94.5C 3400.5,667.833 3400.5,1241.17 3400.5,1814.5C 2910.76,1814.23 2417.43,1813.73 1920.5,1813C 1356.49,1240.5 792.828,667.998 229.5,95.5 Z M 100.5,957.5 C 194.299,1050.8 287.965,1144.3 381.5,1238C 378.242,1238.21 375.076,1238.71 372,1239.5C 281.958,1239.4 191.458,1239.4 100.5,1239.5C 100.5,1145.5 100.5,1051.5 100.5,957.5 Z M 892.5,1244.5 C 1044.92,1244.24 1197.92,1244.58 1351.5,1245.5C 1537.71,1434.54 1723.71,1623.71 1909.5,1813C 1730.96,1813.03 1553.79,1813.2 1378,1813.5C 1240.9,1812.67 1103.74,1812.17 966.5,1812C 778.248,1623.75 589.914,1435.41 401.5,1247C 402.43,1246.01 403.596,1245.51 405,1245.5C 420.089,1245.58 435.089,1245.91 450,1246.5C 597.598,1245.83 745.098,1245.17 892.5,1244.5 Z M 355.5,1245.5 C 366.289,1245.64 377.122,1245.64 388,1245.5C 579.674,1435.2 771.841,1626.7 964.5,1820C 1151.27,2006.27 1336.6,2192.1 1520.5,2377.5C 1358.62,2535.2 1196.12,2693.2 1033,2851.5C 723.181,2540.68 412.514,2229.68 101,1918.5C 100.5,1694.5 100.333,1470.5 100.5,1246.5C 185.668,1246.83 270.668,1246.5 355.5,1245.5 Z M 974.5,1820.5 C 1070.45,1819.7 1166.28,1819.37 1262,1819.5C 1480.43,1820.33 1698.93,1820.83 1917.5,1821C 2100.25,2006.08 2282.58,2191.42 2464.5,2377C 2400.16,2377.19 2335.83,2377.69 2271.5,2378.5C 2025.53,2378.58 1779.53,2378.41 1533.5,2378C 1345.93,2189.93 1159.6,2004.09 974.5,1820.5 Z M 1928.5,1820.5 C 2416.2,1821.13 2906.87,1821.47 3400.5,1821.5C 3400.5,2006.5 3400.5,2191.5 3400.5,2376.5C 3092.19,2377.51 2783.86,2377.67 2475.5,2377C 2292.39,2191.73 2110.06,2006.23 1928.5,1820.5 Z M 100.5,1927.5 C 408.252,2235.75 717.586,2545.25 1028.5,2856C 719.28,3156.55 410.113,3457.05 101,3757.5C 100.5,3147.5 100.333,2537.5 100.5,1927.5 Z M 2482.5,2385.5 C 2788.22,2385.07 3094.22,2384.74 3400.5,2384.5C 3400.67,2695.17 3400.5,3005.83 3400,3316.5C 3095.28,3007.46 2791.28,2698.46 2488,2389.5C 2486.35,2387.79 2484.52,2386.46 2482.5,2385.5 Z M 1522.5,2385.5 C 1524.86,2385.34 1527.19,2385.5 1529.5,2386C 1531.68,2388.35 1534.02,2390.52 1536.5,2392.5C 1994.35,2851.51 2452.35,3310.35 2910.5,3769C 2652.66,3768.65 2395.16,3767.82 2138,3766.5C 2126.05,3767.02 2114.05,3767.36 2102,3767.5C 2049.9,3766.67 1997.74,3766.17 1945.5,3766C 1642.98,3462.81 1340.64,3159.81 1038.5,2857C 1199.65,2699.69 1360.98,2542.52 1522.5,2385.5 Z M 1541.5,2386.5 C 1852,2385.33 2162.67,2385.17 2473.5,2386C 2782.94,2699.77 3091.77,3013.6 3400,3327.5C 3400.5,3475.17 3400.67,3622.83 3400.5,3770.5C 3242.27,3770.08 3083.94,3769.58 2925.5,3769C 2466.61,3310.95 2005.28,2850.12 1541.5,2386.5 Z M 1032.5,2861.5 C 1033.24,2861.37 1033.91,2861.54 1034.5,2862C 1413.94,3241.11 1792.94,3620.44 2171.5,4000C 1481.17,4000.5 790.833,4000.67 100.5,4000.5C 100.333,3922.83 100.5,3845.17 101,3767.5C 412.031,3465.97 722.531,3163.97 1032.5,2861.5 Z M 1953.5,3774.5 C 2088.83,3773.58 2223.49,3773.25 2357.5,3773.5C 2528.83,3774.17 2700.17,3774.83 2871.5,3775.5C 2874.83,3775.17 2878.17,3774.83 2881.5,3774.5C 2893.45,3775.31 2905.45,3775.81 2917.5,3776C 2992.17,3850.33 3066.5,3925 3140.5,4000C 2820.17,4000.67 2499.83,4000.67 2179.5,4000C 2104.3,3924.63 2028.97,3849.47 1953.5,3774.5 Z M 2932.5,3776.5 C 3088.34,3775.21 3244.34,3775.21 3400.5,3776.5C 3400.5,3851.17 3400.5,3925.83 3400.5,4000.5C 3319.17,4000.67 3237.83,4000.5 3156.5,4000C 3081.97,3925.3 3007.3,3850.8 2932.5,3776.5 Z"/></g>
</svg>
