<?xml version="1.0" encoding="UTF-8"?>
<svg version="1.1" viewBox="0 0 1750 2048" width="3500" height="4096" xmlns="http://www.w3.org/2000/svg">
<path transform="translate(0)" d="m0 0h1750v2048h-1750zm116 47 2 4 15 15 7 8 55 55 7 8 53 53 7 8 52 52 7 8 57 57 7 8 52 52 7 8 54 54 7 8 56 56 7 8 53 53 7 8 57 57 7 8 53 53 7 8 56 56 7 8 56 56 7 8 56 56 7 8 19 19h741v-859zm-66 1v425l146 146h476l-6-7-48-48-7-8-55-55-7-8-52-52-7-8-56-56-7-8-55-55-7-8-55-55-7-8-55-55-7-8-56-56-7-8-55-55-7-8-5-5zm0 432v139l1 1h139l-2-4-136-136zm151 143 6 7 276 276 233 1h239l-6-7-26-26-7-8-55-55-7-8-54-54-7-8-53-53-7-8-53-53-3-4zm-24 0-127 1v335l287 287 7 8 172 172 7-6 12-11 25-25 8-7 29-29 8-7 27-27 8-7 28-28 8-7 28-28 8-7 29-29 8-7 11-11v-3l-6-5-5-5-3-4h-2v-2l-3-3h-2v-2h-2v-2l-3-3h-2v-2l-3-3h-2l-2-4-379-379h-2l-2-4-4-4h-2l-2-4-12-12-4-2-2-4-5-5-5-4-5-5-4-5-5-5-7-6-90-90zm311 287 6 7 272 272h466l-6-8-58-58-7-8-56-56-7-8-55-55-7-8-53-53-7-8-16-16-364-1zm477 0 2 4 29 29 7 8 53 53 7 8 56 56 7 8 54 54 7 8 51 51h440l23-1v-276l-1-1zm-915 55v913l4-2 8-7 28-28 8-7 28-28 8-7 28-28 8-7 30-30 8-7 27-27 8-7 27-27 8-7 29-29 8-7 27-27 8-7 30-30 8-7 27-27 8-7 29-29 8-7 29-29 8-7 17-17-2-4-460-460zm1193 227 2 5 59 59 7 8 54 54 7 8 56 56 7 8 55 55 7 8 54 54 7 8 54 54 7 8 57 57 7 8 16 16 2-1v-464zm-482 1-26 26-8 7-26 26-8 7-30 30-8 7-28 28-8 7-27 27-8 7-27 27-8 7-29 29 2 4 272 272 7 8 171 171 81 1 361 1h41l-6-7-169-169-3-4h-2v-2h-2v-2l-3-3h-2l-2-4-3-3h-2l-2-4-494-494zm10 0 6 7 403 403h2l2 4 7 6 6 7 6 5 5 5 8 9 8 7 239 239h238v-220l-7-8-38-38-7-8-55-55-7-8-53-53-7-8-56-56-7-8-53-53-7-8-55-55-7-8-55-55-7-8-43-43zm-255 238-31 31-8 7-30 30-8 7-28 28-8 7-28 28-8 7-27 27-8 7-27 27-8 7-29 29-8 7-28 28-8 7-27 27-8 7-29 29-8 7-25 25-8 7-30 30-8 7-31 31v115l1035 1-2-4-224-224-7-8-334-334zm461 456 6 7 106 106 481 1-2-4-84-84-4-5h-2l-2-4-11-11-6-5-288-1zm490 1 6 7 105 105h123v-111l-14-1z" fill="#F2E6D5"/>
</svg>
