<?xml version="1.0" encoding="UTF-8"?>
<svg version="1.1" viewBox="0 0 2048 2048" width="3000" height="3000" xmlns="http://www.w3.org/2000/svg">
<path transform="translate(0)" d="m0 0h2048v2048h-2048z" fill="#556D60"/>
<path transform="translate(471,451)" d="m0 0 4 2 125 125 8 7 167 167 2 1v2l4 2 27 27h52l266-2h17l-7-8-41-41-8-7-58-58-8-7-57-57-8-7-58-58-6-5-1-82h3l29 29 8 7 167 167 8 7 122 122h53l266-2h18l1 1 1 156v182h-234l-102-1-16-16-8-7-59-59-2-1 1 85 82 82h125l136-1h77l1 20v319h-101l-234-1-8-7-57-57-8-7-11-11-1 82-1 1h-101l-234-1-29-29-8-7-58-58-8-7-57-57-8-7-57-57-8-7-58-58-8-7-40-40-1-245v-90l4 1 169 169 8 7 155 155h125l137-1h74l-3-5-29-29-8-7-40-40-151-1-103-1-45-45-8-7-58-58-8-7-57-57-8-7-58-58-8-7-57-57-8-7-23-23-1-136z" fill="#F5E3D1"/>
</svg>
